<!-- Bootstrap Icons (subset) - MIT License https://icons.getbootstrap.com/ -->
<svg xmlns="http://www.w3.org/2000/svg" style="display:none">
  <symbol id="house-door" viewBox="0 0 16 16">
    <path d="M8.354 1.146a.5.5 0 0 0-.708 0l-6 6A.5.5 0 0 0 1.5 7.5H2v7a.5.5 0 0 0 .5.5h4a.5.5 0 0 0 .5-.5v-3h2v3a.5.5 0 0 0 .5.5h4a.5.5 0 0 0 .5-.5v-7h.5a.5.5 0 0 0 .354-.854z"/>
    <path d="M13 2.5v4.793l-5-5-5 5V2.5A1.5 1.5 0 0 1 4.5 1h7A1.5 1.5 0 0 1 13 2.5"/>
  </symbol>
  <symbol id="x-circle" viewBox="0 0 16 16">
    <path d="M8 15A7 7 0 1 1 8 1a7 7 0 0 1 0 14"/>
    <path d="m4.646 4.646 6.708 6.708m0-6.708-6.708 6.708" stroke="#fff" stroke-width="1.5" stroke-linecap="round"/>
  </symbol>
  <symbol id="file-pdf" viewBox="0 0 16 16">
    <path d="M4 0a2 2 0 0 0-2 2v12a2 2 0 0 0 2 2h8a2 2 0 0 0 2-2V5.5L9.5 0z"/>
    <path d="M9.5 3v-2l3 3h-2a1 1 0 0 1-1-1" fill="#fff"/>
    <path d="M4.5 10h1v1.5H7a1 1 0 0 0 0-2H4.5zM7 9h1.5a2 2 0 0 1 0 4H4.5V9z" fill="#fff"/>
  </symbol>
  <symbol id="save" viewBox="0 0 16 16">
    <path d="M7 2v2h2V2z"/>
    <path d="M15 3.5v11a1.5 1.5 0 0 1-1.5 1.5h-11A1.5 1.5 0 0 1 1 14.5v-13A1.5 1.5 0 0 1 2.5 0h9l3.5 3.5zM2.5 1A.5.5 0 0 0 2 1.5v13a.5.5 0 0 0 .5.5h11a.5.5 0 0 0 .5-.5V4h-2a2 2 0 0 1-2-2z"/>
    <path d="M8 7a2 2 0 1 1-4 0 2 2 0 0 1 4 0"/>
  </symbol>
  <symbol id="check-circle" viewBox="0 0 16 16">
    <path d="M8 15A7 7 0 1 1 8 1a7 7 0 0 1 0 14"/>
    <path d="m5.354 8.354 1.792 1.792 3.5-3.5" fill="none" stroke="#fff" stroke-width="1.5" stroke-linecap="round"/>
  </symbol>
</svg>
